<?xml version="1.0" encoding="UTF-8" standalone="no"?>
<!DOCTYPE svg PUBLIC "-//W3C//DTD SVG 1.1//EN" "http://www.w3.org/Graphics/SVG/1.1/DTD/svg11.dtd">
<svg width="100%" height="100%" viewBox="0 0 852 272" version="1.1" xmlns="http://www.w3.org/2000/svg" xmlns:xlink="http://www.w3.org/1999/xlink" xml:space="preserve" xmlns:serif="http://www.serif.com/" style="fill-rule:evenodd;clip-rule:evenodd;stroke-linejoin:round;stroke-miterlimit:2;">
    <g transform="matrix(1,0,0,1,-2899.91,-1869)">
        <g id="Watermark">
            <g id="_1faa2.svg" serif:id="1faa2.svg" transform="matrix(2.11723,0,0,2.11723,3035.42,2004.5)">
                <g transform="matrix(1,0,0,1,-64,-64)">
                    <g>
                        <path d="M52.22,25.91L52.22,42.51C54.67,41.19 58.57,39.8 63.75,39.8C69.89,39.8 73.42,41.65 75.12,42.99L75.12,25.7C63.67,22.42 55.63,24.63 52.22,25.91Z" style="fill:rgb(183,28,28);fill-rule:nonzero;"/>
                        <path d="M75.57,10.02L77.12,11.32C77.31,11.48 77.55,11.55 77.79,11.52L79.4,11.35C79.81,11.31 80.19,11.55 80.33,11.93L80.89,13.47C81.01,13.79 81.3,14.02 81.64,14.05L83.43,14.23C83.81,14.27 84.13,14.55 84.21,14.93L84.62,16.8C84.67,17.03 84.81,17.23 85.01,17.36L87.1,18.72L82.87,21.6C82.87,21.6 73.2,15.51 73.24,15.18C73.29,14.85 74.08,12.67 74.08,12.67L75.57,10.02Z" style="fill:rgb(3,169,244);fill-rule:nonzero;"/>
                        <path d="M43.05,54.73C43.05,54.73 52.07,64.9 53.06,63.77C58.69,57.41 64.19,49.58 64.19,37.09C64.19,14.62 55.49,4.16 55.49,4.16L40.9,4.16C40.9,4.16 50,22.63 50,33.75C50,41.95 48.04,48.15 43.15,54.6C43.11,54.65 43.08,54.69 43.05,54.73Z" style="fill:rgb(129,212,250);fill-rule:nonzero;"/>
                        <path d="M48.28,45.13C47.58,47.23 46.64,49.25 45.43,51.25C45.72,55.24 47.2,58.45 48.88,60.86C50.85,62.76 52.65,64.25 53.07,63.78C55.67,60.85 58.23,57.6 60.24,53.73C54.91,52.08 50.39,48.25 48.28,45.13Z" style="fill:url(#_Radial1);fill-rule:nonzero;"/>
                        <path d="M82.49,19.22L82.01,17.7C81.91,17.4 81.63,17.2 81.32,17.22L79.48,17.31C79.15,17.33 78.85,17.1 78.77,16.77L78.28,14.68C78.22,14.4 77.99,14.19 77.7,14.15L75.92,13.89C75.56,13.84 75.3,13.51 75.33,13.15L75.57,10.02C64.56,21.75 64.2,34.32 64.2,37.1C64.2,49.59 69.7,57.41 75.33,63.78C76.33,64.91 85.34,54.74 85.34,54.74C85.31,54.7 85.28,54.66 85.25,54.62C81.55,49.74 78.76,45.06 78.76,39.44C78.76,26.46 87.09,18.74 87.09,18.74L83.31,19.7C82.97,19.77 82.6,19.57 82.49,19.22Z" style="fill:rgb(129,212,250);fill-rule:nonzero;"/>
                        <path d="M85.35,54.73C85.32,54.69 85.29,54.65 85.26,54.61C83.25,51.96 81.51,49.36 80.34,46.64C77.99,49.56 73.64,52.9 68.56,54.47C70.51,58.02 72.91,61.03 75.34,63.78C76.33,64.9 85.35,54.73 85.35,54.73Z" style="fill:url(#_Radial2);fill-rule:nonzero;"/>
                        <g>
                            <path d="M63.81,91.61L63.81,91.71C63.81,114.18 72.52,123.99 72.52,123.99L87.11,123.99C87.11,123.99 78.01,106.17 78.01,95.05C78.01,93.86 78.06,92.72 78.14,91.61L63.81,91.61Z" style="fill:rgb(239,83,80);fill-rule:nonzero;"/>
                            <path d="M42.56,107.89L40.38,109.69C40.03,109.98 40.1,110.54 40.52,110.72C40.87,110.87 41.25,111.02 41.53,111.09C42.2,111.26 42.59,111.77 42.64,112L43.05,113.87C43.13,114.25 43.45,114.53 43.83,114.57L45.62,114.75C45.96,114.78 46.25,115.01 46.37,115.33L46.93,116.87C47.07,117.26 47.46,117.5 47.86,117.45L49.47,117.28C49.71,117.25 49.95,117.33 50.14,117.48C50.14,117.48 50.46,118.47 51.11,118.78C51.76,119.09 52.41,118.78 52.41,118.78C63.44,107.06 63.8,94.5 63.8,91.71L63.8,91.62L49.15,91.62C48.55,100.2 44.67,105.9 42.56,107.89Z" style="fill:rgb(239,83,80);fill-rule:nonzero;"/>
                        </g>
                        <g opacity="0.6">
                            <path d="M62.03,101.98C57.03,104.44 51.28,105.11 45.85,103.88C45.76,103.86 45.68,103.84 45.59,103.82C45.01,104.84 44.42,105.72 43.87,106.43C44.31,106.59 44.76,106.72 45.18,106.81C47.17,107.26 49.2,107.48 51.22,107.48C54.51,107.48 57.79,106.88 60.89,105.72C61.39,104.51 61.8,103.33 62.14,102.21L62.03,101.98Z" style="fill:rgb(183,28,28);fill-rule:nonzero;"/>
                        </g>
                        <g opacity="0.6">
                            <path d="M78.02,94.28C78.04,93.37 78.07,92.48 78.14,91.62L76.57,91.62C71.58,95.28 67.58,100.17 65.06,105.65C65.42,107.53 65.83,109.26 66.29,110.84C68.24,104.38 72.43,98.48 78.02,94.28Z" style="fill:rgb(183,28,28);fill-rule:nonzero;"/>
                        </g>
                        <g>
                            <path d="M73.18,124C74.97,118.94 77.72,114.24 81.27,110.22C80.9,109.15 80.54,108.07 80.2,106.97C76.17,111.2 72.98,116.2 70.85,121.63C71.83,123.23 72.51,124 72.51,124L73.18,124Z" style="fill:rgb(198,40,40);fill-rule:nonzero;"/>
                        </g>
                        <path d="M77.96,91.62C75.31,92.33 66.69,94.64 63.89,95.38C64.08,99.85 64.62,103.78 65.34,107.19C68.5,104.53 74.19,101.8 78.85,101.91C78.33,99.49 78.01,97.15 78.01,95.06C78.01,93.87 78.06,92.73 78.14,91.62L77.96,91.62Z" style="fill:url(#_Radial3);fill-rule:nonzero;"/>
                        <path d="M78.14,91.57C78.09,91.58 78.02,91.6 77.96,91.62L78.14,91.62L78.14,91.57Z" style="fill:url(#_Radial4);fill-rule:nonzero;"/>
                        <path d="M60.64,106.32C62.41,102.18 63.19,98.47 63.53,95.75C63.48,95.64 63.44,95.53 63.39,95.42C60.8,94.73 51.88,92.35 49.14,91.62C48.91,94.91 48.2,97.78 47.29,100.18C47.09,101.3 46.94,102.02 46.94,102.02C51.3,101.35 57.02,103.72 60.64,106.32Z" style="fill:url(#_Radial5);fill-rule:nonzero;"/>
                        <path d="M88.88,58.52L78.11,66.13C80.37,74.71 67.84,86.86 63.75,86.86C59.66,86.86 46.51,77.13 49.38,66.17L38.94,59.64C38.94,59.64 27.65,73.07 38.11,88.3C43.11,95.58 51.73,99.39 63.75,99.39C75.77,99.39 83.66,95 89.4,88.29C100.78,74.98 88.88,58.52 88.88,58.52Z" style="fill:rgb(129,212,250);fill-rule:nonzero;"/>
                        <path d="M48.31,80.84C47.75,79.68 49.07,76.45 48.75,75.1C46.86,67.03 40.76,63.19 37.52,61.68C35.91,64.29 33.54,69.2 33.68,75.26C40.36,75.32 46.01,78.04 48.31,80.84Z" style="fill:url(#_Radial6);fill-rule:nonzero;"/>
                        <g opacity="0.47">
                            <g>
                                <path d="M51.08,80.95L49.42,78.45C44.22,81.92 37.37,80.87 34.18,79.38C34.43,80.56 34.79,81.77 35.28,83C36.99,83.49 38.97,83.8 41.04,83.8C44.4,83.79 48,83 51.08,80.95Z" style="fill:rgb(2,119,189);fill-rule:nonzero;"/>
                            </g>
                            <g>
                                <path d="M66.6,85.79C66.63,85.61 66.67,85.43 66.7,85.24L63.73,84.82C63.63,85.52 63.45,86.18 63.22,86.8C63.41,86.83 63.59,86.85 63.75,86.85C64.48,86.86 65.47,86.47 66.6,85.79Z" style="fill:rgb(2,119,189);fill-rule:nonzero;"/>
                                <path d="M66.6,85.79C65.47,86.47 64.48,86.86 63.75,86.86C63.59,86.86 63.41,86.84 63.22,86.81C61.02,92.81 53.28,95.81 48.61,96.7C50.22,97.38 51.95,97.93 53.8,98.35C59.29,96.37 65.37,92.45 66.6,85.79Z" style="fill:rgb(2,119,189);fill-rule:nonzero;"/>
                            </g>
                            <g>
                                <path d="M78.7,78.61L76.72,80.87C78.36,82.31 79.32,85.16 79.22,88.32C79.12,91.79 77.86,95.05 75.7,97.63C77.42,97.07 79.02,96.38 80.51,95.58C81.54,93.37 82.14,90.94 82.22,88.42C82.34,84.31 81.03,80.65 78.7,78.61Z" style="fill:rgb(2,119,189);fill-rule:nonzero;"/>
                            </g>
                            <g>
                                <path d="M86.38,67.14L84.63,69.58C86.57,70.98 92.33,75.17 90.06,87.46C91.78,85.24 92.91,82.95 93.56,80.66C93.21,74.87 90.81,70.34 86.38,67.14Z" style="fill:rgb(2,119,189);fill-rule:nonzero;"/>
                            </g>
                            <g>
                                <path d="M83.12,55.09L83.04,52.09C75.63,52.29 68.38,49.24 65.72,47.76C66.15,49.18 66.66,50.52 67.23,51.79C70.98,53.37 76.61,55.1 82.38,55.1C82.63,55.1 82.88,55.1 83.12,55.09Z" style="fill:rgb(2,119,189);fill-rule:nonzero;"/>
                            </g>
                            <g>
                                <path d="M66.86,23.7C66.3,25.13 65.86,26.49 65.51,27.77C68.56,33.17 73.74,38.1 78.77,39.3C78.77,38.25 78.85,37.25 78.95,36.27C74.22,34.87 69.06,29.11 66.86,23.7Z" style="fill:rgb(2,119,189);fill-rule:nonzero;"/>
                            </g>
                            <g>
                                <path d="M49.11,42.3C48.85,43.42 48.53,44.51 48.15,45.58C50.76,48.38 54.32,53.63 55.88,60.41C56.66,59.42 57.42,58.38 58.14,57.3C56.02,50.47 52.11,45 49.11,42.3Z" style="fill:rgb(2,119,189);fill-rule:nonzero;"/>
                            </g>
                            <g>
                                <path d="M63.53,44.31L63.69,43.4C63.97,41.68 64.14,39.85 64.18,37.91C60.12,27.77 53.17,24.59 48.2,23.04C48.53,24.2 48.82,25.37 49.08,26.51C54.06,28.4 60.7,33.06 63.53,44.31Z" style="fill:rgb(2,119,189);fill-rule:nonzero;"/>
                            </g>
                            <g>
                                <path d="M58.81,9.83C54.25,6.91 49.33,5.09 45.42,4.17L40.9,4.17C40.9,4.17 41.34,5.06 42.02,6.57C46.2,7.19 54.41,9.55 60.9,15.09C60.21,13.04 59.49,11.29 58.81,9.83Z" style="fill:rgb(2,119,189);fill-rule:nonzero;"/>
                            </g>
                        </g>
                        <path d="M79.7,80.84C80.26,79.68 78.94,76.45 79.26,75.1C81.15,67.03 87.25,63.19 90.49,61.68C92.1,64.29 94.47,69.2 94.33,75.26C87.65,75.32 81.99,78.04 79.7,80.84Z" style="fill:url(#_Radial7);fill-rule:nonzero;"/>
                        <path d="M80.94,79.43C80.82,79.55 75.06,86.1 64.05,86.85C65.7,68.73 83.01,59.62 79.75,45.12C79.75,45.12 78.69,42.55 78.77,39.42C78.95,31.92 80.75,29 80.75,29C99.86,37.76 92.93,58.33 91.27,62.29C89.95,65.4 84.19,73.34 80.94,79.43Z" style="fill:rgb(239,83,80);fill-rule:nonzero;"/>
                        <path d="M47.09,79.42C47.21,79.54 52.97,86.09 63.98,86.84C62.33,68.72 44.39,59.48 48.27,45.13C48.27,45.13 49.72,41.19 49.98,37.52C50.45,30.77 49.01,26.29 49.01,26.29C27.85,34.59 35.05,58.21 36.76,62.27C38.08,65.39 43.84,73.32 47.09,79.42Z" style="fill:rgb(239,83,80);fill-rule:nonzero;"/>
                        <path d="M90.11,36.48C88.09,33.6 85.1,30.99 80.75,29C80.75,29 78.96,31.93 78.77,39.43C78.69,42.57 79.75,45.13 79.75,45.13C79.85,45.56 79.92,45.98 79.98,46.4C81.31,42.95 83.62,38.41 90.11,36.48Z" style="fill:url(#_Radial8);fill-rule:nonzero;"/>
                        <path d="M36.91,36.6C43.17,38.62 46.55,43.84 47.86,47.22C47.86,47.21 47.87,47.2 47.88,47.2C47.97,46.52 48.09,45.83 48.28,45.13C48.28,45.13 49.73,41.19 49.99,37.52C50.46,30.77 49.02,26.29 49.02,26.29C42.84,28.71 39.1,32.44 36.91,36.6Z" style="fill:url(#_Radial9);fill-rule:nonzero;"/>
                        <g opacity="0.6">
                            <g>
                                <path d="M38.43,42.83C41.33,40.48 45.06,39.84 49.48,40.89C49.68,39.95 49.86,38.92 49.95,37.91C42.89,36.32 38.36,38.77 35.77,41.17C35.47,41.44 35.19,41.73 34.92,42.02C34.4,44.25 34.2,46.51 34.21,48.66C35.04,46.71 36.38,44.48 38.43,42.83Z" style="fill:rgb(183,28,28);fill-rule:nonzero;"/>
                            </g>
                            <g>
                                <path d="M49.33,56.33C48.91,55.36 48.57,54.37 48.31,53.38C45.36,55.33 41.38,59.36 39.69,67.35C40.44,68.54 41.27,69.83 42.12,71.16C43.07,62.64 46.57,58.39 49.33,56.33Z" style="fill:rgb(183,28,28);fill-rule:nonzero;"/>
                            </g>
                            <g>
                                <path d="M59.09,72.49C58.57,71.57 58.02,70.67 57.47,69.79C54.95,72.7 52.11,77.35 50.06,81.96C50.78,82.48 51.62,83.02 52.61,83.57C54.46,79.27 57,75.12 59.09,72.49Z" style="fill:rgb(183,28,28);fill-rule:nonzero;"/>
                            </g>
                            <g>
                                <path d="M88.04,33.99C87.31,33.25 86.5,32.53 85.6,31.86C84.29,36.47 81.54,39.77 78.96,42.08C79.24,43.89 79.76,45.13 79.76,45.13C79.77,45.19 79.78,45.24 79.79,45.3C82.68,42.93 86.16,39.27 88.04,33.99Z" style="fill:rgb(183,28,28);fill-rule:nonzero;"/>
                            </g>
                            <g>
                                <path d="M93.83,48.31C90.39,54.33 82.21,57.64 77.05,59.19C76.38,60.42 75.64,61.65 74.85,62.9C78.79,61.98 87.88,59.32 93.56,53.55C93.78,51.91 93.9,50.14 93.83,48.31Z" style="fill:rgb(183,28,28);fill-rule:nonzero;"/>
                            </g>
                            <g>
                                <path d="M86.11,70.87L85.97,70.87C79.58,70.87 73.17,72.41 67.42,75.24C66.74,76.66 66.12,78.13 65.6,79.67C71.16,76.24 77.63,74.23 84.18,73.93" style="fill:rgb(183,28,28);fill-rule:nonzero;"/>
                            </g>
                        </g>
                        <g>
                            <path d="M82.18,25.33C80.93,25.04 78.35,24.21 75.11,21.93C72.16,19.85 70.84,17.95 70.26,16.71C70.26,16.71 70.01,15.72 70.7,14.73C71.29,13.9 72.17,13.91 72.17,13.91C72.2,14.02 73.27,16.97 76.83,19.46C80.65,22.14 83.24,22.47 83.82,22.58C83.82,22.58 84.2,23.02 83.58,24.3C83.14,25.24 82.18,25.33 82.18,25.33Z" style="fill:rgb(255,123,120);fill-rule:nonzero;"/>
                        </g>
                        <g opacity="0.29">
                            <g>
                                <path d="M83.92,23.16C83.92,23.16 80.98,22.96 76.54,19.89C72.69,17.22 71.69,14.06 71.68,14.04L72.3,13.93L72.55,13.6C72.56,13.63 73.67,16.66 77.11,19.08C80.56,21.51 84.26,22.14 84.26,22.14L83.88,22.73L83.92,23.16Z" style="fill:rgb(33,33,33);fill-rule:nonzero;"/>
                            </g>
                        </g>
                        <g>
                            <path d="M56.14,114.27C54.96,113.97 52.37,113.15 49.13,111.12C46.03,109.17 44.5,107.48 43.8,106.5C43.8,106.5 43.63,105.3 44.17,104.67C44.89,103.84 45.57,103.84 45.57,103.84C45.57,103.84 46.92,106.19 50.73,108.58C54.53,110.97 57.32,111.5 57.86,111.62C57.86,111.62 58.09,112.26 57.6,113.29C57.28,113.97 56.55,114.38 56.14,114.27Z" style="fill:rgb(129,212,250);fill-rule:nonzero;"/>
                        </g>
                        <g opacity="0.3">
                            <g>
                                <path d="M57.91,112.23C57.91,112.23 54.87,111.95 50.2,109.24C46.15,106.89 45,104.04 44.99,104.01L45.59,103.81L45.9,103.25C45.91,103.28 47.28,105.55 50.84,107.81C54.54,110.15 58.31,110.93 58.31,110.93L57.85,111.62L57.91,112.23Z" style="fill:rgb(33,33,33);fill-rule:nonzero;"/>
                            </g>
                        </g>
                    </g>
                </g>
            </g>
            <g transform="matrix(1,0,0,1,2871.29,73.7227)">
                <g transform="matrix(186,0,0,186,886.136,1989.22)">
                </g>
                <text x="154.124px" y="1989.22px" style="font-family:'Sylfaen', sans-serif;font-size:186px;fill:white;">Az Foxxo</text>
            </g>
        </g>
    </g>
    <defs>
        <radialGradient id="_Radial1" cx="0" cy="0" r="1" gradientUnits="userSpaceOnUse" gradientTransform="matrix(15.5083,12.6649,-6.23735,7.637,54.1895,49.4644)"><stop offset="0" style="stop-color:rgb(129,212,250);stop-opacity:0"/><stop offset="0.21" style="stop-color:rgb(129,212,250);stop-opacity:0"/><stop offset="1" style="stop-color:rgb(2,136,209);stop-opacity:0.77"/></radialGradient>
        <radialGradient id="_Radial2" cx="0" cy="0" r="1" gradientUnits="userSpaceOnUse" gradientTransform="matrix(15.0544,-11.7869,5.80456,7.41248,74.3828,50.6361)"><stop offset="0" style="stop-color:rgb(129,212,250);stop-opacity:0"/><stop offset="0.21" style="stop-color:rgb(129,212,250);stop-opacity:0"/><stop offset="1" style="stop-color:rgb(2,136,209);stop-opacity:0.77"/></radialGradient>
        <radialGradient id="_Radial3" cx="0" cy="0" r="1" gradientUnits="userSpaceOnUse" gradientTransform="matrix(15.6192,-4.45705,2.38283,8.34885,71.3718,105.962)"><stop offset="0" style="stop-color:rgb(176,36,39);stop-opacity:0"/><stop offset="0.44" style="stop-color:rgb(176,36,39);stop-opacity:0"/><stop offset="1" style="stop-color:rgb(183,28,28);stop-opacity:1"/></radialGradient>
        <radialGradient id="_Radial4" cx="0" cy="0" r="1" gradientUnits="userSpaceOnUse" gradientTransform="matrix(0.188666,-0.0538373,0.0287825,0.100847,78.0517,91.6205)"><stop offset="0" style="stop-color:rgb(176,36,39);stop-opacity:0"/><stop offset="0.44" style="stop-color:rgb(176,36,39);stop-opacity:0"/><stop offset="1" style="stop-color:rgb(183,28,28);stop-opacity:1"/></radialGradient>
        <radialGradient id="_Radial5" cx="0" cy="0" r="1" gradientUnits="userSpaceOnUse" gradientTransform="matrix(16.7626,6.61529,-3.5356,8.95974,53.4288,105.63)"><stop offset="0" style="stop-color:rgb(176,36,39);stop-opacity:0"/><stop offset="0.44" style="stop-color:rgb(176,36,39);stop-opacity:0"/><stop offset="1" style="stop-color:rgb(183,28,28);stop-opacity:1"/></radialGradient>
        <radialGradient id="_Radial6" cx="0" cy="0" r="1" gradientUnits="userSpaceOnUse" gradientTransform="matrix(20.0368,9.05967,-6.61444,14.6274,37.7517,82.0453)"><stop offset="0" style="stop-color:rgb(129,212,250);stop-opacity:0"/><stop offset="0.3" style="stop-color:rgb(129,212,250);stop-opacity:0"/><stop offset="1" style="stop-color:rgb(2,136,209);stop-opacity:0.77"/></radialGradient>
        <radialGradient id="_Radial7" cx="0" cy="0" r="1" gradientUnits="userSpaceOnUse" gradientTransform="matrix(-20.0368,9.05967,6.61444,14.6274,90.2548,82.0446)"><stop offset="0" style="stop-color:rgb(129,212,250);stop-opacity:0"/><stop offset="0.3" style="stop-color:rgb(129,212,250);stop-opacity:0"/><stop offset="1" style="stop-color:rgb(2,136,209);stop-opacity:0.77"/></radialGradient>
        <radialGradient id="_Radial8" cx="0" cy="0" r="1" gradientUnits="userSpaceOnUse" gradientTransform="matrix(13.347,-11.6565,7.45674,8.53946,85.237,39.9549)"><stop offset="0" style="stop-color:rgb(176,36,39);stop-opacity:0"/><stop offset="0.3" style="stop-color:rgb(176,36,39);stop-opacity:0"/><stop offset="0.82" style="stop-color:rgb(183,28,28);stop-opacity:1"/><stop offset="1" style="stop-color:rgb(183,28,28);stop-opacity:1"/></radialGradient>
        <radialGradient id="_Radial9" cx="0" cy="0" r="1" gradientUnits="userSpaceOnUse" gradientTransform="matrix(14.9023,14.7806,-9.45563,9.53329,43.0863,40.1032)"><stop offset="0" style="stop-color:rgb(176,36,39);stop-opacity:0"/><stop offset="0.3" style="stop-color:rgb(176,36,39);stop-opacity:0"/><stop offset="0.82" style="stop-color:rgb(183,28,28);stop-opacity:1"/><stop offset="1" style="stop-color:rgb(183,28,28);stop-opacity:1"/></radialGradient>
    </defs>
</svg>
